# xmcd CD database file
#
# Track frame offsets:
#	150
#	12394
#	73761
#	104797
#	124332
#	133003
#	149705
#	162077
#	191386
#	226801
#	272811
#	291782
#
# Disc length: 4170 seconds
#
# Revision: 2
# Processed by: cddbd v1.5.2PL0 Copyright (c) Steve Scherf et al.
# Submitted via: CDex 1.70beta2
#
DISCID=bb10480c
DTITLE=Position Alpha - Yeti
DYEAR=2001
DGENRE=Jazz
TTITLE0=Alpha Konst III - På Medinan
TTITLE1=Charlie
TTITLE2=Alpha Konst XI - Dagligt Liv i Antikens Rom
TTITLE3=You're Away In Kawaihae
TTITLE4=Alpha Konst XII - Grisen and Tranan
TTITLE5=Alpha Konst X - Very Water Music
TTITLE6=Everybody's Got a Hungry Dog to Feed
TTITLE7=Alpha Konst IX - Yeti
TTITLE8=Orsapolska
TTITLE9=Alpha Konst XVII - Uncle Carliot
TTITLE10=Alpha Konst I - Ankomsten
TTITLE11=Data Track
EXTD=YEAR: 2001
EXTT0=
EXTT1=
EXTT2=
EXTT3=
EXTT4=
EXTT5=
EXTT6=
EXTT7=
EXTT8=
EXTT9=
EXTT10=
EXTT11=
PLAYORDER=
